<?xml version="1.0" encoding="UTF-8"?>
<svg id="Layer_2" data-name="Layer 2" xmlns="http://www.w3.org/2000/svg" viewBox="0 0 1885.91409 820.27475">
  <defs>
    <style>
      .cls-1 {
        fill: #67d7e1;
      }

      .cls-2, .cls-3 {
        stroke-width: 10px;
      }

      .cls-2, .cls-3, .cls-4 {
        fill: none;
        stroke: #693908;
        stroke-miterlimit: 10;
      }

      .cls-2, .cls-4 {
        stroke-linecap: round;
      }

      .cls-5 {
        fill: #693908;
      }

      .cls-6 {
        fill: #4a9f68;
      }

      .cls-7 {
        fill: #dc6648;
      }

      .cls-4 {
        stroke-width: 8px;
      }

      .cls-8 {
        opacity: .5;
      }

      .cls-8, .cls-9 {
        fill: #f7f7f7;
      }

      .cls-10 {
        fill: #ffe4c5;
      }
    </style>
  </defs>
  <g>
    <path class="cls-1" d="M333.70141,690.32102c29.83156,2.14829,55.14913,16.86914,65.20573,42.82167,10.05661,25.95253-67.80098,15.24711-88.88742-8.11017s6.29342-35.96371,23.68168-34.71151Z"/>
    <path class="cls-3" d="M333.70141,690.32102c29.83156,2.14829,55.14913,16.86914,65.20573,42.82167,10.05661,25.95253-67.80098,15.24711-88.88742-8.11017s6.29342-35.96371,23.68168-34.71151Z"/>
    <path class="cls-1" d="M152.68252,690.32102c-29.83156,2.14829-55.14913,16.86914-65.20573,42.82167-10.05661,25.95253,67.80098,15.24711,88.88742-8.11017,21.08643-23.35728-6.29342-35.96371-23.68168-34.71151Z"/>
    <path class="cls-3" d="M152.68252,690.32102c-29.83156,2.14829-55.14913,16.86914-65.20573,42.82167-10.05661,25.95253,67.80098,15.24711,88.88742-8.11017,21.08643-23.35728-6.29342-35.96371-23.68168-34.71151Z"/>
    <path class="cls-1" d="M240.68869,717.54722c64.05327,.00002,217.92029-7.40445,233.15836-150.08974,13.47037-126.13302-30.22659-204.8872-51.28783-334.42285-18.46204-113.54951-78.05554-173.66741-181.87052-173.6674-103.81496,0-163.40844,60.1179-181.87048,173.66739C37.757,362.57024-5.93994,441.32437,7.53042,567.45736c15.23806,142.68526,169.10501,150.08984,233.15828,150.08987Z"/>
    <path class="cls-3" d="M240.68869,717.54722c64.05327,.00002,217.92029-7.40445,233.15836-150.08974,13.47037-126.13302-30.22659-204.8872-51.28783-334.42285-18.46204-113.54951-78.05554-173.66741-181.87052-173.6674-103.81496,0-163.40844,60.1179-181.87048,173.66739C37.757,362.57024-5.93994,441.32437,7.53042,567.45736c15.23806,142.68526,169.10501,150.08984,233.15828,150.08987Z"/>
    <path class="cls-1" d="M119.26863,380.8371c-22.37733,.84977-26.16285,17.09349-26.27694,36.00914-.15653,25.95253,14.5983,106.72978,30.81863,137.224s43.47049,29.521,40.87523-5.19051c-2.59525-34.71151-11.67864-105.10775-8.43457-129.11384s-11.35423-39.90202-36.98236-38.9288Z"/>
    <path class="cls-10" d="M112.44743,524.46361c3.57318,11.82886,7.42444,22.20227,11.36292,29.60669,16.22034,30.49414,43.47046,29.521,40.87524-5.19055-.70355-9.40979-1.88409-21.44421-3.16638-34.46362-5.87939-4.25232-12.49261-6.65076-19.48975-6.65076-11.37927,0-21.75122,6.32141-29.58203,16.69824Z"/>
    <path class="cls-2" d="M92.9917,416.84623c-.15653,25.95253,14.5983,106.72978,30.81863,137.224s43.47049,29.521,40.87523-5.19051c-2.59525-34.71151-11.67864-105.10775-8.43457-129.11384"/>
    <path class="cls-1" d="M367.1153,380.8371c22.37733,.84977,26.16285,17.09349,26.27694,36.00914,.15653,25.95253-14.5983,106.72978-30.81863,137.224-16.22033,30.49422-43.47049,29.521-40.87523-5.19051,2.59525-34.71151,11.67864-105.10775,8.43457-129.11384-3.24407-24.00609,11.35423-39.90202,36.98236-38.9288Z"/>
    <path class="cls-10" d="M373.9365,524.46361c-3.57318,11.82886-7.42444,22.20227-11.36292,29.60669-16.22034,30.49414-43.47046,29.521-40.87524-5.19055,.70355-9.40979,1.88409-21.44421,3.16638-34.46362,5.87939-4.25232,12.49261-6.65076,19.48975-6.65076,11.37927,0,21.75122,6.32141,29.58203,16.69824Z"/>
    <path class="cls-2" d="M393.39223,416.84623c.15653,25.95253-14.5983,106.72978-30.81863,137.224-16.22033,30.49422-43.47049,29.521-40.87523-5.19051,2.59525-34.71151,11.67864-105.10775,8.43457-129.11384"/>
    <circle class="cls-9" cx="112.5372" cy="193.08676" r="57.17667"/>
    <circle class="cls-3" cx="112.5372" cy="193.08676" r="57.17667"/>
    <path class="cls-2" d="M75.21484,149.77075s-21.80075-2.50643-26.34244-27.16133"/>
    <path class="cls-2" d="M60.34791,169.70144s-27.04703,4.16423-35.1572-10.75848"/>
    <path class="cls-2" d="M55.36053,193.08676s-19.7888,9.48889-34.3871,0"/>
    <path class="cls-10" d="M243.19196,328.1309c21.84426,0,25.78837-38.22746,25.78837-38.22746l-25.78837-15.77641-25.78837,15.77641s3.9441,38.22746,25.78837,38.22746Z"/>
    <path class="cls-3" d="M243.19196,328.1309c21.84426,0,25.78837-38.22746,25.78837-38.22746l-25.78837-15.77641-25.78837,15.77641s3.9441,38.22746,25.78837,38.22746Z"/>
    <path class="cls-7" d="M243.19196,283.53219c13.65267,0,14.86624,21.84426,26.39515,23.36123s43.68853-1.82036,43.68853-35.80032c0-33.97997-36.40711-55.21745-70.08368-55.21745-33.67657,0-70.08368,21.23748-70.08368,55.21745s32.15961,37.31729,43.68853,35.80032,12.74249-23.36123,26.39515-23.36123Z"/>
    <path class="cls-3" d="M243.19196,283.53219c13.65267,0,14.86624,21.84426,26.39515,23.36123s43.68853-1.82036,43.68853-35.80032c0-33.97997-36.40711-55.21745-70.08368-55.21745-33.67657,0-70.08368,21.23748-70.08368,55.21745s32.15961,37.31729,43.68853,35.80032,12.74249-23.36123,26.39515-23.36123Z"/>
    <path class="cls-5" d="M243.19196,241.96741c10.31535,0,34.58675-13.95606,34.8836-18.55787s-12.73595-12.08478-34.8836-12.08478c-22.14766,0-35.18045,7.48296-34.8836,12.08478s24.56826,18.55787,34.8836,18.55787Z"/>
    <path class="cls-3" d="M243.19196,241.96741c10.31535,0,34.58675-13.95606,34.8836-18.55787s-12.73595-12.08478-34.8836-12.08478c-22.14766,0-35.18045,7.48296-34.8836,12.08478s24.56826,18.55787,34.8836,18.55787Z"/>
    <line class="cls-4" x1="243.19196" y1="283.53219" x2="243.19196" y2="312.96127"/>
    <path class="cls-6" d="M243.19196,99.36295c55.91613,0,78.57146-26.32853,78.57146-26.32853,.12717-20.89198-16.43681-68.03442-78.57146-68.03442-62.13464,0-78.69862,47.14244-78.57146,68.03442,0,0,22.65533,26.32853,78.57146,26.32853Z"/>
    <path class="cls-3" d="M243.19196,99.36295c55.91613,0,78.57146-26.32853,78.57146-26.32853,.12717-20.89198-16.43681-68.03442-78.57146-68.03442-62.13464,0-78.69862,47.14244-78.57146,68.03442,0,0,22.65533,26.32853,78.57146,26.32853Z"/>
    <g>
      <circle class="cls-5" cx="124.5468" cy="199.09156" r="22.59865"/>
      <circle class="cls-9" cx="114.23627" cy="190.88987" r="10.89518"/>
      <circle class="cls-9" cx="139.06732" cy="208.71176" r="5.21356"/>
    </g>
    <circle class="cls-9" cx="373.84673" cy="193.08676" r="57.17667"/>
    <g>
      <circle class="cls-5" cx="361.83713" cy="199.09156" r="22.59865"/>
      <circle class="cls-9" cx="372.14766" cy="190.88987" r="10.89518"/>
      <circle class="cls-9" cx="347.31661" cy="208.71176" r="5.21356"/>
    </g>
    <circle class="cls-3" cx="373.84673" cy="193.08676" r="57.17667"/>
    <path class="cls-2" d="M411.16909,149.77075s21.80075-2.50643,26.34244-27.16133"/>
    <path class="cls-2" d="M426.03602,169.70144s27.04703,4.16423,35.1572-10.75848"/>
    <path class="cls-2" d="M431.0234,193.08676s19.7888,9.48889,34.3871,0"/>
    <path class="cls-3" d="M321.76342,73.03442s-25.31692-18.60815-78.57146-18.60815c-53.25453,0-78.57146,18.60815-78.57146,18.60815"/>
  </g>
  <g>
    <g>
      <path class="cls-1" d="M866.8214,409.2627s84.79994-20.73316,133.0792-53.07527c48.27926-32.34211,70.73059-2.24862,31.91749,34.05569-38.8131,36.30431-122.78193,69.64205-159.49393,73.52667-28.22269,2.98634-44.09399-4.8523-45.32632-20.93022-1.3917-18.15719,13.23666-26.31896,39.82355-33.57687Z"/>
      <path class="cls-10" d="M999.90062,356.18749c-10.46953,7.01348-22.65742,13.48005-35.32462,19.30869,.4606,14.91947,5.11629,33.44394,22.48127,45.97559,17.32786-9.66132,33.08779-20.31011,44.76073-31.22865,38.8132-36.3043,16.36187-66.39775-31.91738-34.05563Z"/>
      <path class="cls-2" d="M866.8214,409.2627s84.79994-20.73316,133.0792-53.07527c48.27926-32.34211,70.73059-2.24862,31.91749,34.05569-38.8131,36.30431-122.78193,69.64205-159.49393,73.52667"/>
    </g>
    <rect class="cls-8" x="964.07517" y="73.03442" width="492.93301" height="658.90116"/>
    <rect class="cls-3" x="964.07517" y="73.03442" width="492.93301" height="658.90116"/>
    <g>
      <path class="cls-1" d="M656.75287,763.08452c-19.6898,.33806-29.87234,24.51064-27.57447,39.06383s42.12766,16.85106,68.17021,7.65957c26.04255-9.19149,7.38601-47.54722-40.59574-46.7234Z"/>
      <path class="cls-1" d="M929.43372,724.02069c33.34465-1.77234,77.3617,20.65471,92.68085,39.05076,15.31915,18.39605-88.22901,17.63009-121.17572,18.39605-32.94671,.76596-12.84298-55.24961,28.49487-57.44681Z"/>
      <path class="cls-3" d="M656.75287,763.08452c-19.6898,.33806-29.87234,24.51064-27.57447,39.06383s42.12766,16.85106,68.17021,7.65957c26.04255-9.19149,7.38601-47.54722-40.59574-46.7234Z"/>
      <path class="cls-3" d="M929.43372,724.02069c33.34465-1.77234,77.3617,20.65471,92.68085,39.05076,15.31915,18.39605-88.22901,17.63009-121.17572,18.39605-32.94671,.76596-12.84298-55.24961,28.49487-57.44681Z"/>
      <path class="cls-1" d="M762.1935,794.09009c64.05327,.00002,217.92029-7.40445,233.15836-150.08974,13.47037-126.13302-30.22659-204.8872-51.28783-334.42285-18.46204-113.54951-78.05554-173.66741-181.87052-173.6674-103.81496,0-163.40844,60.1179-181.87048,173.66739-21.06123,129.53562-64.75817,208.28976-51.28781,334.42274,15.23806,142.68526,169.10501,150.08984,233.15828,150.08987Z"/>
      <path class="cls-3" d="M762.1935,794.09009c64.05327,.00002,217.92029-7.40445,233.15836-150.08974,13.47037-126.13302-30.22659-204.8872-51.28783-334.42285-18.46204-113.54951-78.05554-173.66741-181.87052-173.6674-103.81496,0-163.40844,60.1179-181.87048,173.66739-21.06123,129.53562-64.75817,208.28976-51.28781,334.42274,15.23806,142.68526,169.10501,150.08984,233.15828,150.08987Z"/>
      <circle class="cls-9" cx="760.02656" cy="285.24235" r="57.17667"/>
      <circle class="cls-3" cx="760.02656" cy="285.24235" r="57.17667"/>
      <path class="cls-2" d="M722.7042,241.92634s-21.80075-2.50643-26.34244-27.16133"/>
      <path class="cls-2" d="M707.83727,261.85703s-27.04703,4.16423-35.1572-10.75848"/>
      <path class="cls-2" d="M702.84989,285.24235s-19.7888,9.48889-34.3871,0"/>
      <g>
        <circle class="cls-5" cx="772.03616" cy="291.24715" r="22.59865"/>
        <circle class="cls-9" cx="761.72563" cy="283.04546" r="10.89518"/>
        <circle class="cls-9" cx="786.55668" cy="300.86735" r="5.21356"/>
      </g>
      <ellipse class="cls-9" cx="914.78932" cy="268.18059" rx="32.26233" ry="57.17667"/>
      <g>
        <ellipse class="cls-5" cx="919.02162" cy="274.18539" rx="12.75144" ry="22.59865"/>
        <ellipse class="cls-9" cx="924.8394" cy="265.98369" rx="6.14768" ry="10.89518"/>
        <ellipse class="cls-9" cx="910.82831" cy="283.80558" rx="2.94179" ry="5.21356"/>
      </g>
      <ellipse class="cls-3" cx="914.78932" cy="268.18059" rx="32.26233" ry="57.17667"/>
      <path class="cls-2" d="M935.84872,224.86458s12.30122-2.50643,14.8639-27.16133"/>
      <path class="cls-2" d="M944.23748,244.79527s15.26147,4.16423,19.83769-10.75848"/>
      <path class="cls-2" d="M947.05165,268.18059s11.16597,9.48889,19.40316,0"/>
      <g>
        <path class="cls-10" d="M900.93885,438.66294c16.31683,0,19.26292-38.22746,19.26292-38.22746l-19.26292-15.77641-19.26292,15.77641s2.94609,38.22746,19.26292,38.22746Z"/>
        <path class="cls-3" d="M900.93885,438.66294c16.31683,0,19.26292-38.22746,19.26292-38.22746l-19.26292-15.77641-19.26292,15.77641s2.94609,38.22746,19.26292,38.22746Z"/>
        <path class="cls-7" d="M900.93885,394.06423c10.19802,0,11.10451,21.84426,19.71617,23.36123s22.62565-1.82036,22.62565-35.80032c0-33.97997-27.19471-55.21745-52.34982-55.21745-25.15511,0-52.34982,21.23748-52.34982,55.21745s34.03,37.31729,42.64165,35.80032,9.51815-23.36123,19.71617-23.36123Z"/>
        <path class="cls-3" d="M900.93885,394.06423c10.19802,0,11.10451,21.84426,19.71617,23.36123s22.62565-1.82036,22.62565-35.80032c0-33.97997-27.19471-55.21745-52.34982-55.21745-25.15511,0-52.34982,21.23748-52.34982,55.21745s34.03,37.31729,42.64165,35.80032,9.51815-23.36123,19.71617-23.36123Z"/>
        <path class="cls-5" d="M899.37258,352.41918c7.6648,.78768,27.12632-11.24189,27.81733-15.79693s-8.22802-12.99398-24.6848-14.68518c-16.45678-1.6912-26.90574,4.75737-27.1556,9.35775-.24986,4.60037,16.35827,20.33668,24.02307,21.12437Z"/>
        <path class="cls-3" d="M899.37258,352.41918c7.6648,.78768,27.12632-11.24189,27.81733-15.79693s-8.22802-12.99398-24.6848-14.68518c-16.45678-1.6912-26.90574,4.75737-27.1556,9.35775-.24986,4.60037,16.35827,20.33668,24.02307,21.12437Z"/>
        <line class="cls-4" x1="900.93885" y1="394.06423" x2="900.93885" y2="423.49331"/>
      </g>
      <path class="cls-1" d="M729.51882,469.4675s77.68193,39.82979,135.3516,46.97872c57.66967,7.14894,54.94627,44.59574,1.83989,46.6383-53.10638,2.04255-138.41013-27.7138-168.70813-48.80625-23.29187-16.21502-30.16038-32.52962-20.56847-45.49162,10.83238-14.6383,27.23404-11.23404,52.08511,.68085Z"/>
      <path class="cls-10" d="M864.8704,516.44627c-12.50586-1.55029-25.95288-4.63879-39.34473-8.52332-9.41711,11.58105-18.02222,28.63342-13.09619,49.47375,19.42407,4.03748,38.30908,6.30212,54.28076,5.68774,53.10645-2.04248,55.82983-39.48926-1.83984-46.63818Z"/>
      <path class="cls-2" d="M729.51882,469.4675s77.68193,39.82979,135.3516,46.97872c57.66967,7.14894,54.94627,44.59574,1.83989,46.6383-53.10638,2.04255-138.41013-27.7138-168.70813-48.80625"/>
    </g>
    <g>
      <path class="cls-5" d="M1097.60743,221.43416l125.79199-64.79297v18.70605l-106.00098,53.13574v.54199l106.00098,53.13672v18.70605l-125.79199-64.79395v-14.63965Z"/>
      <path class="cls-5" d="M1241.02247,311.7115l75.6377-196.5498h18.43555l-75.90918,196.5498h-18.16406Z"/>
      <path class="cls-5" d="M1477.96583,236.34529l-125.79199,64.52246v-18.70605l106.81445-53.13672v-.54199l-106.81445-53.13574v-18.70605l125.79199,64.52246v15.18164Z"/>
    </g>
    <g>
      <path class="cls-1" d="M1513.33011,744.29507c-33.34465-1.77234-77.3617,20.65471-92.68085,39.05076-15.31915,18.39605,88.22901,17.63009,121.17572,18.39605,32.94671,.76596,12.84298-55.24961-28.49487-57.44681Z"/>
      <path class="cls-3" d="M1513.33011,744.29507c-33.34465-1.77234-77.3617,20.65471-92.68085,39.05076-15.31915,18.39605,88.22901,17.63009,121.17572,18.39605,32.94671,.76596,12.84298-55.24961-28.49487-57.44681Z"/>
      <path class="cls-1" d="M1760.73436,744.29507c-33.34465-1.77234-77.3617,20.65471-92.68085,39.05076-15.31915,18.39605,88.22901,17.63009,121.17572,18.39605,32.94671,.76596,12.84298-55.24961-28.49487-57.44681Z"/>
      <path class="cls-5" d="M1443.73159,316.95686s-26.89362,3.40426-36.08511,23.14894,7.48936,29.2766,7.48936,29.2766l41.87234-29.95745-13.2766-22.46809Z"/>
      <path class="cls-3" d="M1443.73159,316.95686s-26.89362,3.40426-36.08511,23.14894,7.48936,29.2766,7.48936,29.2766l41.87234-29.95745-13.2766-22.46809Z"/>
      <path class="cls-3" d="M1760.73436,744.29507c-33.34465-1.77234-77.3617,20.65471-92.68085,39.05076-15.31915,18.39605,88.22901,17.63009,121.17572,18.39605,32.94671,.76596,12.84298-55.24961-28.49487-57.44681Z"/>
      <path class="cls-7" d="M1465.74128,331.08452c-30.6937,3.06383-69.87552,26.82829-59.80019,72.00989s46.72434,35.22415,54.9875,26.79862c8.26316-8.42553,4.8127-98.80851,4.8127-98.80851Z"/>
      <path class="cls-3" d="M1465.74128,331.08452c-30.6937,3.06383-69.87552,26.82829-59.80019,72.00989s46.72434,35.22415,54.9875,26.79862c8.26316-8.42553,4.8127-98.80851,4.8127-98.80851Z"/>
      <path class="cls-1" d="M1645.22531,780.78942c64.05327,.00002,217.92029-7.40445,233.15836-150.08974,13.47037-126.13302-30.22659-204.8872-51.28783-334.42285-18.46204-113.54951-78.05554-173.66741-181.87052-173.6674-103.81496,0-163.40844,60.1179-181.87048,173.66739-21.06123,129.53562-64.75817,208.28976-51.28781,334.42274,15.23806,142.68526,169.10501,150.08984,233.15828,150.08987Z"/>
      <path class="cls-3" d="M1645.22531,780.78942c64.05327,.00002,217.92029-7.40445,233.15836-150.08974,13.47037-126.13302-30.22659-204.8872-51.28783-334.42285-18.46204-113.54951-78.05554-173.66741-181.87052-173.6674-103.81496,0-163.40844,60.1179-181.87048,173.66739-21.06123,129.53562-64.75817,208.28976-51.28781,334.42274,15.23806,142.68526,169.10501,150.08984,233.15828,150.08987Z"/>
      <ellipse class="cls-9" cx="1465.47801" cy="287.53198" rx="57.17667" ry="42.29483" transform="translate(905.4508 1671.97048) rotate(-79.07652)"/>
      <g>
        <ellipse class="cls-5" cx="1458.89224" cy="292.37657" rx="22.59865" ry="16.71671" transform="translate(895.35621 1669.43058) rotate(-79.07652)"/>
        <ellipse class="cls-9" cx="1452.95771" cy="282.87819" rx="10.89518" ry="8.0594" transform="translate(899.87254 1655.90513) rotate(-79.07652)"/>
        <ellipse class="cls-9" cx="1467.61576" cy="303.85788" rx="5.21356" ry="3.85659" transform="translate(891.15336 1687.30167) rotate(-79.07652)"/>
      </g>
      <ellipse class="cls-3" cx="1465.47801" cy="287.53198" rx="57.17667" ry="42.29483" transform="translate(905.4508 1671.97048) rotate(-79.07652)"/>
      <path class="cls-2" d="M1446.57837,239.76911s-15.35933-5.51695-13.986-30.36177"/>
      <path class="cls-2" d="M1432.00341,257.2547s-20.43388,.29744-23.49663-15.49173"/>
      <path class="cls-2" d="M1423.94951,279.5172s-16.17111,6.54306-24.976-4.82024"/>
      <path class="cls-1" d="M1459.24142,466.31714s-87.29629-.50165-141.75985-20.76539c-54.46356-20.26374-69.32371,14.21606-23.14933,40.5293s135.58539,39.26858,172.19737,34.53329c28.14581-3.6403,41.76652-14.946,39.23656-30.87137-2.85714-17.98491-18.97951-22.53165-46.52475-23.42583Z"/>
      <path class="cls-10" d="M1317.48156,445.55181c11.81061,4.39424,25.1659,7.85797,38.83949,10.59001,3.01198,14.61954,2.7793,33.71867-11.206,49.93584-19.09603-5.37935-36.89589-12.08288-50.78274-19.99663-46.17446-26.31321-31.31432-60.79297,23.14924-40.52922Z"/>
      <path class="cls-2" d="M1459.24142,466.31714s-87.29629-.50165-141.75985-20.76539c-54.46356-20.26374-69.32371,14.21606-23.14933,40.5293s135.58539,39.26858,172.19737,34.53329"/>
    </g>
    <rect class="cls-5" x="991.98691" y="321.6611" width="355.40426" height="15.3975"/>
    <rect class="cls-5" x="991.98691" y="350.34615" width="355.40426" height="15.3975"/>
    <rect class="cls-5" x="991.98691" y="379.03119" width="355.40426" height="15.3975"/>
    <rect class="cls-5" x="1047.13584" y="411.661" width="140.93617" height="11.83231"/>
    <rect class="cls-5" x="1079.71474" y="437.12399" width="140.93617" height="11.83231"/>
    <rect class="cls-5" x="1013.77414" y="462.58698" width="140.93617" height="11.83231"/>
    <rect class="cls-5" x="1047.13584" y="488.04997" width="140.93617" height="11.83231"/>
    <rect class="cls-5" x="1090.02946" y="513.51296" width="140.93617" height="11.83231"/>
    <rect class="cls-5" x="1028.75287" y="591.81083" width="140.93617" height="11.83231"/>
    <rect class="cls-5" x="1054.28478" y="617.68317" width="293.10638" height="11.83231"/>
  </g>
</svg>