<?xml version="1.0" encoding="UTF-8"?>
<svg id="Layer_2" data-name="Layer 2" xmlns="http://www.w3.org/2000/svg" viewBox="0 0 481.37747 887.91876">
  <defs>
    <style>
      .cls-1 {
        fill: #67d7e1;
      }

      .cls-2, .cls-3 {
        stroke-width: 10px;
      }

      .cls-2, .cls-3, .cls-4 {
        fill: none;
        stroke: #693908;
        stroke-miterlimit: 10;
      }

      .cls-2, .cls-4 {
        stroke-linecap: round;
      }

      .cls-5 {
        fill: #693908;
      }

      .cls-6 {
        fill: #4a9f68;
      }

      .cls-7 {
        fill: #dc6648;
      }

      .cls-4 {
        stroke-width: 8px;
      }

      .cls-8 {
        fill: #f7f7f7;
      }

      .cls-9 {
        fill: #ffe4c5;
      }
    </style>
  </defs>
  <path class="cls-1" d="M333.70141,690.32102c29.83156,2.14829,55.14913,16.86914,65.20573,42.82167,10.05661,25.95253-67.80098,15.24711-88.88742-8.11017s6.29342-35.96371,23.68168-34.71151Z"/>
  <path class="cls-3" d="M333.70141,690.32102c29.83156,2.14829,55.14913,16.86914,65.20573,42.82167,10.05661,25.95253-67.80098,15.24711-88.88742-8.11017s6.29342-35.96371,23.68168-34.71151Z"/>
  <path class="cls-1" d="M152.68252,690.32102c-29.83156,2.14829-55.14913,16.86914-65.20573,42.82167-10.05661,25.95253,67.80098,15.24711,88.88742-8.11017,21.08643-23.35728-6.29342-35.96371-23.68168-34.71151Z"/>
  <path class="cls-3" d="M152.68252,690.32102c-29.83156,2.14829-55.14913,16.86914-65.20573,42.82167-10.05661,25.95253,67.80098,15.24711,88.88742-8.11017,21.08643-23.35728-6.29342-35.96371-23.68168-34.71151Z"/>
  <path class="cls-1" d="M240.68869,717.54722c64.05327,.00002,217.92029-7.40445,233.15836-150.08974,13.47037-126.13302-30.22659-204.8872-51.28783-334.42285-18.46204-113.54951-78.05554-173.66741-181.87052-173.6674-103.81496,0-163.40844,60.1179-181.87048,173.66739C37.757,362.57024-5.93994,441.32437,7.53042,567.45736c15.23806,142.68526,169.10501,150.08984,233.15828,150.08987Z"/>
  <path class="cls-3" d="M240.68869,717.54722c64.05327,.00002,217.92029-7.40445,233.15836-150.08974,13.47037-126.13302-30.22659-204.8872-51.28783-334.42285-18.46204-113.54951-78.05554-173.66741-181.87052-173.6674-103.81496,0-163.40844,60.1179-181.87048,173.66739C37.757,362.57024-5.93994,441.32437,7.53042,567.45736c15.23806,142.68526,169.10501,150.08984,233.15828,150.08987Z"/>
  <path class="cls-1" d="M119.26863,380.8371c-22.37733,.84977-26.16285,17.09349-26.27694,36.00914-.15653,25.95253,14.5983,106.72978,30.81863,137.224,16.22033,30.49422,43.47049,29.521,40.87523-5.19051-2.59525-34.71151-11.67864-105.10775-8.43457-129.11384s-11.35423-39.90202-36.98236-38.9288Z"/>
  <path class="cls-9" d="M112.44743,524.46361c3.57318,11.82886,7.42444,22.20227,11.36292,29.60669,16.22034,30.49414,43.47046,29.521,40.87524-5.19055-.70355-9.40979-1.88409-21.44421-3.16638-34.46362-5.87939-4.25232-12.49261-6.65076-19.48975-6.65076-11.37927,0-21.75122,6.32141-29.58203,16.69824Z"/>
  <path class="cls-2" d="M92.9917,416.84623c-.15653,25.95253,14.5983,106.72978,30.81863,137.224,16.22033,30.49422,43.47049,29.521,40.87523-5.19051-2.59525-34.71151-11.67864-105.10775-8.43457-129.11384"/>
  <path class="cls-1" d="M367.1153,380.8371c22.37733,.84977,26.16285,17.09349,26.27694,36.00914,.15653,25.95253-14.5983,106.72978-30.81863,137.224-16.22033,30.49422-43.47049,29.521-40.87523-5.19051,2.59525-34.71151,11.67864-105.10775,8.43457-129.11384-3.24407-24.00609,11.35423-39.90202,36.98236-38.9288Z"/>
  <path class="cls-9" d="M373.9365,524.46361c-3.57318,11.82886-7.42444,22.20227-11.36292,29.60669-16.22034,30.49414-43.47046,29.521-40.87524-5.19055,.70355-9.40979,1.88409-21.44421,3.16638-34.46362,5.87939-4.25232,12.49261-6.65076,19.48975-6.65076,11.37927,0,21.75122,6.32141,29.58203,16.69824Z"/>
  <path class="cls-2" d="M393.39223,416.84623c.15653,25.95253-14.5983,106.72978-30.81863,137.224-16.22033,30.49422-43.47049,29.521-40.87523-5.19051,2.59525-34.71151,11.67864-105.10775,8.43457-129.11384"/>
  <circle class="cls-8" cx="112.5372" cy="193.08676" r="57.17667"/>
  <circle class="cls-3" cx="112.5372" cy="193.08676" r="57.17667"/>
  <path class="cls-2" d="M75.21484,149.77075s-21.80075-2.50643-26.34244-27.16133"/>
  <path class="cls-2" d="M60.34791,169.70144s-27.04703,4.16423-35.1572-10.75848"/>
  <path class="cls-2" d="M55.36053,193.08676s-19.7888,9.48889-34.3871,0"/>
  <path class="cls-9" d="M243.19196,328.1309c21.84426,0,25.78837-38.22746,25.78837-38.22746l-25.78837-15.77641-25.78837,15.77641s3.9441,38.22746,25.78837,38.22746Z"/>
  <path class="cls-3" d="M243.19196,328.1309c21.84426,0,25.78837-38.22746,25.78837-38.22746l-25.78837-15.77641-25.78837,15.77641s3.9441,38.22746,25.78837,38.22746Z"/>
  <path class="cls-7" d="M243.19196,283.53219c13.65267,0,14.86624,21.84426,26.39515,23.36123,11.52892,1.51696,43.68853-1.82036,43.68853-35.80032,0-33.97997-36.40711-55.21745-70.08368-55.21745-33.67657,0-70.08368,21.23748-70.08368,55.21745s32.15961,37.31729,43.68853,35.80032,12.74249-23.36123,26.39515-23.36123Z"/>
  <path class="cls-3" d="M243.19196,283.53219c13.65267,0,14.86624,21.84426,26.39515,23.36123,11.52892,1.51696,43.68853-1.82036,43.68853-35.80032,0-33.97997-36.40711-55.21745-70.08368-55.21745-33.67657,0-70.08368,21.23748-70.08368,55.21745s32.15961,37.31729,43.68853,35.80032,12.74249-23.36123,26.39515-23.36123Z"/>
  <path class="cls-5" d="M243.19196,241.96741c10.31535,0,34.58675-13.95606,34.8836-18.55787,.29685-4.60181-12.73595-12.08478-34.8836-12.08478-22.14766,0-35.18045,7.48296-34.8836,12.08478s24.56826,18.55787,34.8836,18.55787Z"/>
  <path class="cls-3" d="M243.19196,241.96741c10.31535,0,34.58675-13.95606,34.8836-18.55787,.29685-4.60181-12.73595-12.08478-34.8836-12.08478-22.14766,0-35.18045,7.48296-34.8836,12.08478s24.56826,18.55787,34.8836,18.55787Z"/>
  <line class="cls-4" x1="243.19196" y1="283.53219" x2="243.19196" y2="312.96127"/>
  <path class="cls-6" d="M243.19196,99.36295c55.91613,0,78.57146-26.32853,78.57146-26.32853,.12717-20.89198-16.43681-68.03442-78.57146-68.03442-62.13464,0-78.69862,47.14244-78.57146,68.03442,0,0,22.65533,26.32853,78.57146,26.32853Z"/>
  <path class="cls-3" d="M243.19196,99.36295c55.91613,0,78.57146-26.32853,78.57146-26.32853,.12717-20.89198-16.43681-68.03442-78.57146-68.03442-62.13464,0-78.69862,47.14244-78.57146,68.03442,0,0,22.65533,26.32853,78.57146,26.32853Z"/>
  <g>
    <circle class="cls-5" cx="124.5468" cy="199.09156" r="22.59865"/>
    <circle class="cls-8" cx="114.23627" cy="190.88987" r="10.89518"/>
    <circle class="cls-8" cx="139.06732" cy="208.71176" r="5.21356"/>
  </g>
  <circle class="cls-8" cx="373.84673" cy="193.08676" r="57.17667"/>
  <g>
    <circle class="cls-5" cx="361.83713" cy="199.09156" r="22.59865"/>
    <circle class="cls-8" cx="372.14766" cy="190.88987" r="10.89518"/>
    <circle class="cls-8" cx="347.31661" cy="208.71176" r="5.21356"/>
  </g>
  <circle class="cls-3" cx="373.84673" cy="193.08676" r="57.17667"/>
  <path class="cls-2" d="M411.16909,149.77075s21.80075-2.50643,26.34244-27.16133"/>
  <path class="cls-2" d="M426.03602,169.70144s27.04703,4.16423,35.1572-10.75848"/>
  <path class="cls-2" d="M431.0234,193.08676s19.7888,9.48889,34.3871,0"/>
  <path class="cls-3" d="M321.76342,73.03442s-25.31692-18.60815-78.57146-18.60815c-53.25453,0-78.57146,18.60815-78.57146,18.60815"/>
</svg>